<svg width="53" height="62" viewBox="0 0 53 62" fill="none" xmlns="http://www.w3.org/2000/svg">
<path d="M21.659 0.5H38.879C47.817 0.5 52.286 4.887 52.286 13.661V62H38.264C36.952 62 35.886 61.549 35.066 60.647C34.246 59.745 33.836 58.556 33.836 57.08V13.415C33.836 12.103 33.508 11.16 32.852 10.586C32.278 10.012 30.925 9.725 28.793 9.725H21.659V0.5ZM0.134 0.5H7.637C11.245 0.5 13.951 1.402 15.755 3.206C17.641 4.928 18.584 7.183 18.584 9.971V62H4.562C3.25 62 2.184 61.549 1.364 60.647C0.544 59.745 0.134 58.556 0.134 57.08V0.5Z" fill="black"/>
</svg>
